<svg width="328" height="167" viewBox="0 0 328 167" fill="none" xmlns="http://www.w3.org/2000/svg">
<path d="M104.509 166.284H88.8173V155.032H46.3351V134.812L85.1557 110.636H104.509V142.25H113.082V155.032H104.509V166.284ZM88.8173 142.25V124.121L59.9731 142.25H88.8173ZM163.295 109.947C168.717 109.947 172.698 110.241 175.249 110.828C177.801 111.415 179.868 112.41 181.437 113.838C183.158 115.382 184.434 117.525 185.252 120.255C186.08 122.973 186.488 126.468 186.488 130.704V146.217C186.488 150.427 186.08 153.909 185.252 156.652C184.434 159.395 183.158 161.539 181.437 163.082C179.842 164.511 177.762 165.506 175.211 166.092C172.66 166.679 168.692 166.973 163.295 166.973H146.226C140.791 166.973 136.811 166.679 134.285 166.092C131.772 165.506 129.705 164.511 128.085 163.082C126.312 161.564 125.011 159.485 124.194 156.844C123.364 154.203 122.957 150.771 122.957 146.561V131.38C122.957 126.711 123.352 123.011 124.13 120.281C124.921 117.55 126.21 115.408 128.009 113.838C129.603 112.41 131.708 111.415 134.311 110.828C136.913 110.241 140.855 109.947 146.15 109.947H163.295ZM158.779 122.96H150.742C146.213 122.96 143.228 123.751 141.787 125.32C140.357 126.89 139.643 129.977 139.643 134.595V142.785C139.643 147.148 140.396 150.095 141.889 151.638C143.382 153.183 146.328 153.961 150.742 153.961H158.779C163.22 153.961 166.166 153.195 167.658 151.664C169.138 150.133 169.879 147.123 169.879 142.632V134.213C169.879 129.735 169.151 126.736 167.71 125.218C166.268 123.713 163.283 122.96 158.779 122.96ZM254.078 166.284H238.386V155.032H195.904V134.812L234.725 110.636H254.078V142.25H262.651V155.032H254.078V166.284ZM238.386 142.25V124.121L209.542 142.25H238.386Z" fill="white"/>
<mask id="mask0_25_90" style="mask-type:luminance" maskUnits="userSpaceOnUse" x="0" y="0" width="328" height="115">
<path d="M327.705 0H0V114.816H327.705V0Z" fill="white"/>
</mask>
<g mask="url(#mask0_25_90)">
<path d="M0.368504 66.7706C0.951307 66.6327 59.3582 52.7081 103.334 33.2024C108.226 31.0341 112.187 29.7479 115.524 29.1409C111.785 32.9083 89.7955 42.2967 107.359 43.9608C123.472 45.4896 96.9264 64.6103 84.7593 71.5616C52.752 81.7092 31.9786 85.6951 31.6059 85.7669L32.0455 88.114C32.1551 88.0936 34.0146 87.7361 37.3814 86.9911C55.0258 83.0869 114.253 68.4642 182.204 35.0468C191.733 30.3606 199.511 27.7625 206.056 26.7972C204.138 36.6417 181.92 58.413 217.401 63.9103C249.763 68.9242 184.866 81.6529 160.679 88.1348C157.19 89.0691 154.547 89.8756 153.166 90.5072C142.487 95.4058 266.63 91.0001 322.145 90.7763C323.956 90.8406 325.806 90.8768 327.705 90.8768V88.4874C278.118 88.4874 260.556 65.8129 246.443 47.5929C231.779 28.6579 220.196 13.7015 181.151 32.9023C172.078 37.3621 162.906 41.6167 153.641 45.6631C145.455 42.7502 140.497 38.5603 136.152 34.8813C128.064 28.0339 122.22 23.0846 102.689 31.7484C58.8503 51.1903 0.582803 65.0831 0 65.221L0.368504 66.7706Z" fill="#FDFDFD"/>
</g>
</svg>
